<?xml version="1.0" encoding="UTF-8"?>
<svg id="Layer_1" data-name="Layer 1" xmlns="http://www.w3.org/2000/svg" viewBox="0 0 841.89 595.28">
  <defs>
    <style>
      .cls-1 {
        fill: #0580bb;
      }
    </style>
  </defs>
  <g>
    <path class="cls-1" d="M133.56,409.5c-.39-.14-1.37.24-1.71.06-.78-.41-1.04-1.09-1.77-1.51-1.4-.79-3.74-1.62-5.88-2.63-1.95-.92-3.81-1.5-5.85-2.59-.51-.27-.85-.66-1.42-.89-.47-.24-1.64-.33-2.04-.57-.82-.5-.97-1.12-1.76-1.51l-1.32.69c-.6-.18-1.33-2.16-2.49-2.76-.47-.23-1.45-.32-2.07-.56-1.2-.5-2.18-1.13-3.81-2.06-.38-.24-.56.42-1.04-.28-.63-.99-2.43-.44-3.43-1.44-1.01-1.01-1.27-1.07-2.8-1.8-.45-.21-.57.42-1.05-.26-.28-.46-2.42-2.07-3.14-2.43-.66-.32-1.99-.32-3.09-.83-.28-.15-.41-1.18-.72-1.24-.63-.11-1.35-.85-3.19-2.39l-2.1-2.15c-1.14-.17-3.34-2.93-5.28-4.55-.26-.18-.64.35-1.04-.26-.45-.68-2.11-1.63-3.15-2.43l-.77-1.23c-.65-.12-1.82-1.19-3.14-2.4-.15-.18-.66.3-1.04-.29-.94-1.45-1.39-2.06-2.87-3.37.72.06,1.48.09,2.37-.4,1.16.67,2.2.9,3.46,1.44.47.21,1.64.33,2.04.56l.73,1.24.66-.35c.35.15.41,1.16.76,1.25.31.09,1-.79,1.32-.68.31.08.4,1.18.72,1.24.57.09,2.96.68,3.47,1.45.34.51,1.79.83,2.42,1.15.82.44,2.02,1.09,3.43,1.45.58.15.26.65,1.05.3.65-.3.97.44,1.39.89.53.52,1.73.82,2.42,1.14,1.01.48,1.89.35,3.09.85.69.27,1,1.18,1.76,1.51,1.01.41,3.49.56,5.16,1.35.42.21,1.87.42,2.06.56.49.39.53,1.54,1.09,1.87.37.24.56-.38,1.04.27.5.81,1.51.24,2.04.56,1.04.65,2.11,1.71,3.15,2.42,1.29.83,1.99,1.6,3.18,2.4.45.32,1.64.32,2.05.56l.72,1.25c1.29.2,2.74,2.36,4.57,3.3.85.44,1.54.71,2.42,1.14.35.19.88.22,1.04.3.97.56,1.13,1.51,2.11,2.13.38.23,1.82.35,2.08.56.53.45,1.19,2.98,1.82,3.1,2.26.38,3.97,4.48,6.77,7.03.15.15.63-.32,1.04.27l.35.62c.59.44,1.85,1.35,3.14,2.43,1.09.87,3.3.96,4.28,4.24-3.05-.3-5.26-2.72-7.65-4.13-1.22-.71-2.61-1.39-3.81-2.07-.5-.26-1.13-1.23-1.75-1.51"/>
    <path class="cls-1" d="M133.21,227.91c-2.68-2.57-4.87-4.99-7.81-7.29l-.73-1.24-.66.35c-.91-.77-1.57-2.03-2.49-2.77-.32-.24-1.85-.36-2.07-.53-.51-.47-.57-1.45-1.07-1.87-.26-.21-.63.33-1.04-.3-1.47-2.15-5.82-3.33-7.43-6.67,1.23.15,2.45,0,3.74.47.97.39,1.7,1.42,2.8,1.8,1.7.63,3.9.95,6.16,1.66,2.05.62,4.16,1,6.17,1.64,2.05.66,3.91,1.69,5.86,2.64,1.99,2.59-.69,3.99.31,6.31-1.09,1.8,1.11,4.46-1.76,5.79"/>
    <path class="cls-1" d="M164.05,236.18c-.78,1.8.92,1.71,1.83,3.09l.73,1.25c-.41.97.16.32.75,1.24,2.21,3.45,5.83,9.53,7.05,13.34.54,1.69,2.24,2.21,3.59,4.64.91,1.64,1.39,3.77,2.3,5.28.98,1.67,2.39,2.51,3.21,4,.82,1.49,1.1,3.11,1.92,4.67,1.14,2.24,2.88,4.07,4.04,6.82-.07-.12-.92.86-.28.97,2.11.32,1.48,2.21,2.2,3.72,2.06,4.31,4.01,8.12,5.67,12.46.26.66-.1,1.28.44,2.19,0-.15,1.26-.21,1.01.3-.51,1.18,1.61,4.67,2.36,6.88l.75,1.24c-.59,1.42,1.67,5.61,2.43,8.48.28,1.21.22,2.3.51,3.78.09.48,1.47,2.75,1.16,3.46l-.66.35c.37,2.45.87,5.23,1.03,7.56.09,1.45-.41,1.21.16,3.19.18.74-.32.53-.32.94.19,3.34.89,7.36.53,11.1-.06.59-.5,1.36-.59,1.92-.07.54.15,1.03.09,1.6-.09.59-.53,1.39-.59,1.92-.06.5-1.35,3.45-.82,4.48.44.86-1.17,5.76-1.68,7.39-.91,2.89-2.33,6.4-3.62,9.98-1.01,2.89-1.64,5.58-2.61,8.67-.18.54.44.54-.32.94-.91.56-.63,2.72-1.17,3.87-.12.3-1.25.39-1.32.71-.22,1.21-.59,1.63-1.54,3.22-.79,1.36-1.92,2.69-1.83,4.22-2.96,1.57-3.97,3.49-5.51,5.29-1.23,1.44-1.48,4.19-4.85,4.97-1.39-1.01.5-1.33.6-1.92.12-.8-.67-1.48-.44-2.21.37-1.56,1.25-3.34,2.11-5.16.63-1.33,1.42-3.23,3.18-4.89.51-1.94.29-4.1.73-6.08,2.33-.03.47-1.8.88-2.89.35-.97,1.45-1.66,1.89-2.6.85-1.8,2.07-3.54,2.8-5.52.09-.3-.85-.96-.73-1.24.32-.84,2.71-2.51,1.82-4.2-.59-1.12.92-1.77,1.54-3.25.16-.39.73-2.01.89-2.9.03-.32-.86-.95-.76-1.23.56-1.3.4-1.71.52-3.52.03-.8.16-2.45.13-4.13,0-.42.66-.24.32-.97-.57-1.06-.07-.85-.09-1.57-.07-1.87-.79-4.02-.94-6-.09-1.06-.12-2.09-.16-3.19,0-.41.66-.24.32-.95l-.37-.61c-.31-2.36-2.99-8.71-3.62-11.93-.12-.65-.69-1.83-.78-2.81-.06-.5.61-1.52.61-1.94-.1-1.09-.79-1.68-.83-2.8-.03-.41.63-1.66.57-1.95-.18-1.06-1.76-3.1-2.27-5.28-.19-.86-.5-4.7-1.32-6.61-1.16-2.72-3.02-4.7-4.41-7.45-2.8-5.55-4.4-11.73-6.92-17.51-1.36-3.13-2.9-6.05-4.48-9.01-.31-.58.26-1.39-.44-2.21-.03-.06-.72.2-1.04-.27-3.52-5.29-6.01-12.23-10.29-17.37-.94-1.17-2.74-2.65-3.21-3.99-1.09-3,.66-4.93,1.32-8,.54-2.53-.03-5.35,1.67-7.37-.22-.77,1.07-1.11.59-1.93.51-.41.76-.09,1.04.27.78.18,1.07.83,1.76,1.54.09.09,2.02.92,1.76,1.51"/>
    <path class="cls-1" d="M165.94,153.25l-.97,1.3c.13,1.48.7,2.28.54,3.8-.06.3-.97,1.07-.97,1.31.16,1.47.71,2.27.53,3.78-.09.74-1.16,1.56-1.26,2.26-.09.84.56,1.46.44,2.22-.28,1.69-1.04,3.2-1.48,4.82-.38,1.5-.44,2.97-.79,4.48-.59,2.54-1.13,4.57-1.7,7.36-.34,1.71-.69,4.66-1,7.03-.09.5-.7.24-.32.97l.09,1.59c-.06.3-.97,1.06-.97,1.3.16,1.54.63,2.21.54,3.78-.03.47-.7.23-.31.97.63,1.18-.92,2.33-1.17,3.87-.09.68.56,1.45.44,2.19-.19,1.2-1.07,2.18-1.17,3.86-.06.95.03,1.68-.22,2.54-.12.47.13,2,.16,3.19,0,3.19-1.11,6.34-.13,9.7-.69,2.1-.06,5.28-.66,7.4-.75,2.68-1.78,4.74-2.45,7.45-.51,2.1-1.01,4.23-1.51,6.34-.35,1.52.09,7.37.47,8.63.5,1.57,1.01,3.05.92,4.4-.04.33.56,1.93.44,2.22l-.66.32c-.03.32.85.97.72,1.23-.49,1.18-.75,1.75-.49,3.55l.72,1.24-.66.32c.19,1.31.48,3.61.89,4.4.47.92-.4,2.16-.51,3.52-.03.44-.28.74-.31.97-.04,1.06.82,1.74.82,2.83,0,.32-.94,1-.94,1.3.13,1.39.88,2.72.88,4.4,0,.97-.32,1.57-.22,2.56.09,1.13.66,1.66.82,2.82.03.35-.66.29-.32.97.58,1.06,0,.92.11,1.59.37,3.84,1.09,7.48,1.54,11.37l.73,1.24c-.35.8-.66.94-.6,1.92.16,1.89,1.3,4.79.69,6.97-.28.91,1.07,4.1.95,5.99-.06.68.44,2.19.5,3.78.03.94-.35,1.56-.22,2.54.34,2.18,1.54,3.93,1.98,6.26.06.27-.63.36-.28.98l.38.63c.25,2.01.85,6.76,1.44,9.77.45,2.07,1.29,3.78,1.64,5.67.03.27-.63.33-.32.95.35.67.54,2.69.91,4.43.03.23-.63.32-.32.94.72,1.36,1.58,2.69,1.92,4.7.03.3-.63.32-.28.98.15.29.03,1.14.06,1.56.09,1.22.28,2.18.51,3.81.12.74.15,1.21.44,2.19.25.88,1.35,4.54,2.36,6.91.79,1.82,1.66,3.37,2.26,5.28.37,1.14.25,2.49.54,3.78.22,1.13.94,2.45,1.16,3.45.04.12-.44.47-.28.97.09.39.73.83.73,1.25,0,.35-.98,1.03-.94,1.3.09,1.25.4,1.59.13,3.16-.03.29-.96,1.09-.96,1.32.04.39.79.86.77,1.23-.13.92-1.17,1.93-.54,3.52-.88.3-2.07-4.57-1.98-6.29.06-.97-.79-1.39-1.16-3.42-.06-.27.63-.32.28-.98-.38-.71-1.04-4.4-.94-5.99.06-.82-.16-1.18-.44-2.21-1.58-5.4-4.41-14.03-6.4-21-.4-1.4-.51-3.55-1.26-5.02-.63-1.21-.47-2.93-.87-4.43-.41-1.39-.86-2.21-1.16-3.42-.58-2.01-1.39-4.2-2.02-6.29-.7-2.3-1.64-4.66-2.33-6.88-.34-1-.85-2.42-1.19-3.45-.25-.86-.61-2.66-.51-3.78.03-.3-.57-1.89-.45-2.18l.67-.36-.73-1.23c1.07-2.57.44-7.2-.53-11.1-.73-.39-2.4.03-1.39-.89-.15-2.33-1.66-3.9-2.36-6.88-.15-.68-.15-1.27-.44-2.21-.19-.64-.57-1.74-.82-2.84-.16-.68-.16-1.23-.44-2.18-.22-.8-.25-1.45-1.16-3.45-.29-.63.34-.77.28-.98-.35-1.03-1.23-.15-1.45-2.48-.06-.32.63-.27.28-.95-.19-.35-.66-3.33-.88-4.42-.25-1.21-1.29-2.8-1.55-4.05-.09-.39.67-1.64.57-1.92-.37-1.74-1.1-1.97-1.51-4.07-.06-.26.61-.32.28-.96-.38-.68-.66-3.07-.89-4.4-.22-1.15-.28-2.63-.53-3.78-.34-1.62-1-2.99-.88-4.43.28-3.28-.25-8.33-.56-12.67-.09-1.27.34-3.66-.23-4.76-.34-.62-.25-2.12-.16-3.15.13-1.65.1-3.49-.97-6,.85-1.54,2.46-2.83,3.52-4.28-1.6-1.16-.75-2.9-.87-4.41-.06-.98-.44-1.35-.44-2.2,0-.42.69-.24.31-.98-.31-.56.56-2.81.8-4.46.18-1.3.28-2.42.53-3.52.51-2.48,1.2-4.95,1.68-7.38.41-2.07-.25-3.93.72-6.05.19-.35.88-.94.97-1.3.28-1.35-.09-2.81.13-4.14.16-.82.38-1.21.6-1.95.16-.51.69-.21.28-.94-.32-.62.15-1.83.88-2.89.32-.47,1.32-1.06,1.64-1.66.34-.71-.1-1.87.22-2.57.26-.56,1.36-1.03,1.61-1.66.53-1.38.51-3.07.82-4.45.32-1.54.28-3.07.8-4.49l1.31-.67c.07-.33-.18-1.33-.05-1.6.28-.53,1.32-1.04,1.6-1.66.53-1.24.66-2.78,1.17-3.86.34-.65.34-1.37.58-1.92.32-.68,1.2-.92,1.61-1.66.28-.5.35-1.51.59-1.91.36-.59,1.23-.98,1.61-1.66.16-.3-.22-1.39-.06-1.59.25-.33,1.1-.33,1.32-.68.31-.53.34-1.44.59-1.94.32-.66.32-1.33.58-1.92.31-.68,1.2-.92,1.63-1.66.25-.51.32-1.5.57-1.92.79-1.32,1.99-3.74,3.84-5.25.75,1.75-.19,3.45-.44,5.11"/>
    <path class="cls-1" d="M120.46,361.14c.28.39,1.45,1.45,2.14,2.16l1.76,1.49c1.21.22,4.12,3.73,6.02,5.8,1.7,1.86,3.59,4.13,5.35,6.14,1.8,1.95,3.88,3.99,5.39,6.12,3.14,4.49,5.57,9.24,8.74,13.27.28.39.38.93.73,1.25l1.01.32c.28.51-.35.95.09,1.54,1.99,2.75,4.35,5.1,5.45,7.73,1.64,3.86.75,7.91,1.54,11.34-7.24,1.53-11.27-7.5-15.14-12.37-1.3-1.28-2.59-2.43-4.47-1.74-.85-1.66-1.16-1.4-2.52-2.75-.54-.56-1.77-2-3.21-3.99-1.26-1.71-2.3-3.25-4.35-5.87-.78-1.01-1.41-.98-2.14-2.13-1.26-2.04-1.8-4.25-2.99-6.53-1.17-2.21-2.37-4.76-4.07-6.82-1.48-1.83-4.54-3.6-6.67-5.46-2.77-2.39-4.98-5.05-7.79-7.29l-.75-1.24c-1.6-.27-1.32-3.1-2.87-3.37-1.1-.18-4.85-4.31-6.39-6.41-4.12-5.67-6.55-13.23-11.39-19.22l-.73-1.24-.66.35c-.85-1.33-.72-2.93-1.54-4.07-.35-.48-1.16-.75-1.76-1.51-2.68-3.57-8.75-11.43-9.91-16.74.5-.41.75-.1,1.01.26,1.64.33,2.04,1.95,3.52,3.05.48.35,1.39.02,2.08.55.35.27.41.92.72,1.25.44.44,3.5,3.66,5.29,4.55.78.35,1.01.73,1.77,1.51.75.76,4.19,4.37,6.01,5.78.19.15.63-.15,1.04.27,1.7,1.71,3.97,3.84,6.04,5.79l.73,1.24.66-.35c1.95,2.19,3.65,5.26,5.44,7.74,4.94,6.81,9.42,13.37,16.09,18.36,1.39-.56.76,1.3.73,1.24"/>
    <path class="cls-1" d="M198.96,397.29c-2.54,2.26-5.35,5.04-10.2,6.14-.03-1.68,1.99-2.36,2.87-3.93.37-.62,2.05-1.75,3.25-3.31.22-.3-.4-.56.28-.97,1.6-.94,2.99-4.87,3.74-6.79.76-1.97,1.1-3.83,1.76-5.78.94-2.93,1.95-5.38,2.64-8.71l.95-1.3c-.03-.33-.82-.92-.73-1.24.58-2.04,2.09-3.49,2.78-5.5.25-.71-.63-2.07.22-2.56.79-.45.56-1.63.89-2.9.24-.97.59-1.91.87-2.89.38-1.18.76-2.06.89-2.88.32-1.78-.06-3.81.09-5.71.95-1.13,1.04-2.45,1.16-3.86.06-.77-.45-1.3-.45-2.22,0-.49.61-1.47.61-1.92-.03-1.54-.79-2.92-.91-4.4-.04-.53.59-1.48.59-1.95l-.73-1.24.67-.32c0-.32-.86-.97-.77-1.24.23-.47,1.52-1.18,1.64-1.65.22-.89-.45-2.07-.16-3.19.28-1.18,1.57-2.47,1.83-4.19.06-.34-.85-.95-.72-1.24.41-.98.03-4.17-1.32-6.61.22-.39-.13-2.45-1.48-2.49.34-2.15,2.07-3.96-.66-6.96,2.33-1.8-.25-4.35-.28-6.32,0-.41.66-.26.28-.98-.09-.18-.09-1.29-.06-1.59.03-.29.98-1.06.94-1.3-.13-1.53-.5-2.21-.5-3.78,0-.42.66-.23.28-.97-.38-.74-.63-1.12-.06-1.57.37-2.36.18-4.16.34-6.7.03-.33.32-.84.32-.95-.03-.73-.88-1.89-.82-2.83l1.32-.68c.09-.33-.79-.92-.76-1.24.4-2.16,1.92-4.85,2.75-7.12.37-1.09,1.22-2.21,1.54-3.21.34-1.13.09-2.61.51-3.52.31-.67,1.26-1.06,1.6-1.64.32-.51.35-1.49.6-1.95.32-.56,1.29-.97,1.61-1.65.18-.35-.25-1.28-.06-1.56.56-1.01,1.85-1.78,2.58-2.99.28-.54.32-1.42.56-1.92.28-.53.63-.77.95-1.3,1.28-2.06,2.76-4.26,4.12-6.19,1.49-2.13,3.59-3.82,4.12-6.21,1.07-.8,1.7-.12,1.01.27.66,1.09,0,1.68-.22,2.54-.13.68-.44,1.33-.57,1.94-.12.59-.5,1.39-.59,1.92-.09.61.59,1.53.44,2.21-.25,1.21-.84,2.42-1.16,3.83-.25,1.16-.92,2.63-1.17,3.87-.31,1.42.16,2.63-.16,4.14-.25,1.26-.89,2.54-1.16,3.87-.28,1.3-.94,2.6-1.2,3.83-.13.65-.5,1.39-.56,1.92-.19,1.24.16,2.5-.15,4.13-.23,1.16-.06,2.42-.16,4.17,0,.56-.54,1.39-.56,1.92-.09,1.29-.03,2.75-.16,4.13-.03.59.57,1.5.45,2.19-.03.32-1.23.41-1.32.7-.1.32.75.89.75,1.23-.06.53-.58,1.42-.6,1.93-.06,1.24-.13,2.48-.15,4.13,0,.62.5,1.45.43,2.21-.09,1.3-1.04,2.54-1.16,3.85-.06.77.44,1.3.44,2.21,0,.56-.53,1.41-.6,1.92-.09,1.32-.03,2.77-.13,4.14-.03.5-.59,1.5-.59,1.95.03.9.5,1.35.44,2.18-.03.8-.47,1.27-.59,1.94-.09.74.5,1.33.47,2.19-.06.56-.56,1.44-.59,1.95-.07,1.26.09,2.44-.16,4.13-.2,1.27-.38,1.33.16,3.16.18.7-.32.56-.28.97.09,1.3-.13,2.42-.16,4.13,0,.71.4,1.33.44,2.19.03,1.35-.09,2.83-.16,4.14,0,.56-.57,1.44-.57,1.94-.03.68.47,1.36.44,2.18-.03.56-.57,1.45-.6,1.95-.04.65.51,1.42.44,2.18-.09,1.21-1.01,2.44-1.17,3.87-.09.83.57,1.45.44,2.19-.22,1.47-1.29,3.74-1.77,5.81-.18.71.66,1.51.44,2.19-.19.62-1.45,1.06-1.6,1.64-.2.66.53,1.58.44,2.21-.09.48-.44,1.42-.59,1.92-.35,1.21-.77,2.72-2.21,3.61.87,3.34-1.98,5.73-2.65,8.65-.19,1.89-1.51,3.37-2.77,5.52-.28.45-.35,1.57-.59,1.95-.69.98-1.92,1.95-2.58,2.95-.28.44-.32,1.54-.57,1.92-.91,1.36-2.92,2.87-4.19,4.61-.31.44-.22,1.35-.59,1.94-.51.8-.94,1.78-1.92,2.61"/>
    <path class="cls-1" d="M89.07,232.29c2.11,1.92,6.62,7.35,9.32,11.33.32.5-.31,1,.06,1.59-.03-.06.79-.09,1.04.27,2.84,4.25,6.3,9.74,9.86,15.18-.06-.12.79-.09,1.04.27.38.59.76,1.24,1.07,1.85.28.51-.35,1.01.09,1.59.32.39,1.04.3,1.04.27,1.47,2.3,2.52,4.57,4.03,6.82,1.22,1.83,2.77,3.37,3.97,5.23,2.55,3.92,4.15,7.96,6.33,12.13,3.81,7.34,8.34,14.14,11.8,21.4,2.3,4.76,4.73,10.43,6.48,15.3.22.65.94,1.21,1.11,1.85.06.24.03,2.83.5,3.78.28.54,1.1.23,1.41.92.39.89.92,5.02,1.68,7.23.69,1.95,2.01,3.92,2.67,5.91.58,1.8,1.16,3.95,1.61,5.64.09.38.09,1.15.06,1.59-.06,1.06.91,1.8,1.54,4.08.06.15-.59.38-.28.94l1.1,1.85c-.5,1.22.58,1.13,1.17,3.46.06.18-.59.39-.28.97l.37.62c.06.65.06,2.25.51,3.78.31,1.09,1.54,1.98,1.82,3.11.06.21-.6.35-.28.97.22.42-.09,1.01.06,1.56.35,1.13,1.51,2,1.86,3.1.03.15-.6.42-.32.97l.37.63c.26,1.74,2.43,6.99,2.49,10.03.04.44-.66.27-.28.97.32.62.53,2.87.88,4.4.4,1.83.92,3.04,1.64,5.67.12.5.72,1.95.78,2.83.04.35-.97,1.01-.94,1.3.09,1.26.25,1.56.16,3.16-.11,1.54.08,2.98-.16,4.13-.25,1.21-1.29,2.89-1.83,4.19-.37.92.29,3.84-1.92,2.63-.94-1.81-1.01-3.16-1.26-5.02-.1-.85.15-1.68.22-2.57.04-.39-.88-2.69-.51-3.78-1.35-1.04.44-1.3.61-1.92.12-.53-1.04-1.3-.1-1.59-2.55-4.17-4.02-8.63-6.01-13.09-1.85-4.19-4.54-7.97-6.33-12.13-1.04-2.45-1.48-5.65-2.43-8.48-.15-.5-1.6-1.97-1.47-2.48l.66-.32c-.63-2.07-2.17-3.87-2.64-5.93-.03-.23.63-.35.31-.98-.34-.61-.13-2.48-.53-3.77-.66-2.13-2.49-4.26-3.37-7.15-.19-.59.22-.95-.07-1.57l-1.04-.29c-.31-.51-.28-1.8-.82-2.84-.69-1.39-1.92-2.85-2.57-4.34-.89-2-1.2-4.28-1.99-6.26-2.14-5.64-6.13-12.02-9.31-18.65-1.2-2.54-1.86-5.64-3.09-8.15-3.25-6.58-7.81-12.51-11.4-19.22-2.16-4.05-4.03-8.03-6.32-12.11-.57-1.04-1.29-2.04-1.83-3.1-.09-.18.57-1.09-.06-1.59-.28-.2-.63.39-1.04-.27-2.3-3.75-4.12-7.79-5.95-11.51-2.33-4.67-4.63-8.45-6.02-13.08,0,0,.39-.56.28-.95-.53-1.86-1.13-2.24-1.92-4.69-.19-.59.22-.91-.06-1.59-1.19-2.63-3.33-4.81-4.4-7.44-1.01-2.48-.94-5.34-2.08-7.85.51-.39.78-.06,1.03.29,1.87,1.36,3.12,3.22,4.64,4.87.06.09.69-.21,1.04.3.54.82.94,2.56,2.2,3.73"/>
    <path class="cls-1" d="M180.54,332.1c-.65-3.39-.34-7.17-.84-9.36-.25-1.23-1.85-1.89-2.28-3.23-.82-2.63-.44-5.93-2.2-7.5-1.13-.96.03-.89-.3-1.68-1.04-2.62-2.28-4.62-2.88-6.59-.33-1.05-.18-2.13-.61-3.36-.33-.87-.22-2.4-.61-3.36-.59-1.3-1.6-1.8-2.28-3.23-.35-.76-.21-2.5-.6-3.36-.67-1.3-2.43-1.92-2.28-3.24-2.28,2.16.23,5.23.53,7.62.31,2.53.37,5.14.53,7.61.09,1.34-1.07,2.1-1.06,3.48,0,1.2,1.51,2.93,1.58,4.14.07,1.3-1.12,2.35-1.05,3.47.06,1.3,1.43,2.87,1.59,4.14.33,2.6.07,5.09.5,7.65.46,2.52,1.71,4.93,2.2,7.5.41,1.87,1.94,9.91,1.86,10.09-1.06,1.58,0,4.5,1.89,5.81-1.74,3.24,1.35,6.11-.83,9.41,2.7,3.45,2.94,7.9,3.79,11.63.84,3.83,1.5,7.89,2.12,11.74-.39.52.02,1.63.99.79.37-3.01,1.04-5.96,1.14-7.75.08-1.31-.63-2.29-.61-3.35.08-3.64.53-7.37.53-11.09-.03-2.12-.75-5.15-.23-5.93.69-1.08-.38-.96-.3-1.68.09-1.25,1.02-2.13,1.07-3.47.06-2.24-1.42-4.19-.23-5.94.72-1.11-.35-.99-.3-1.67.42-4.1-.19-5.97-.83-9.29"/>
  </g>
  <path class="cls-1" d="M289.02,272.02c-4.03,0-6.93.62-8.94,1.62-2.91,1.47-4.28,3.62-4.28,5.85,0,3.69,3.39,5.62,4.52,6.07,1.78.62,4.68,1.77,9.2,2.77,4.83,1,9.67,2.47,13.37,4.69,3.63,2.32,6.14,5.54,6.14,10.15,0,3.45-1.29,6.61-3.71,9.08-3.31,3.38-8.79,5.54-16.21,5.54-6.29,0-14.99-2.39-19.67-7.62-.65-.69-.73-1.45,0-1.99l2.09-1.61c1.13-.85,1.13-.24,1.7.38,4.43,3.99,9.84,5.83,15.88,5.83,4.04,0,7.1-.69,9.36-1.84,3.78-1.93,5.31-4.99,5.31-7.53,0-2.76-1.37-4.77-3.62-6.3-2.66-1.84-6.61-2.92-11.05-3.85-4.91-1.08-9.1-2.45-11.44-3.61-3.31-1.54-7.1-4.77-7.1-9.99,0-4,2.58-7.69,6.69-9.84,2.9-1.54,6.85-2.45,11.53-2.45,6.46,0,13.47,2.23,16.21,3.69.81.38.89,1.15.73,1.61l-.8,2.47c-.32.76-1.13.68-1.94.22-.97-.61-7.01-3.31-13.95-3.31"/>
  <path class="cls-1" d="M341.98,267.29c.68,0,.93.32.93.96v48.32c0,1.21-.17,1.21-.93,1.21h-3.68c-.51,0-.84-.16-.84-.81v-48.55c0-.72.25-1.13.84-1.13h3.68"/>
  <path class="cls-1" d="M371.34,269.03c0-1.28.25-1.45.93-1.45l2.77-.23c.92-.08.92-.24,1.76.72l33.89,39.04c.42.56.66.87,1.09.87.34,0,.5-.15.5-.96v-38.8c0-.72.17-.88,1.18-.88h3.27c.84,0,.92.32.92,1.13v48.23c0,1.04-.25,1.12-1.09,1.04l-2.52-.16c-.75-.08-.92.08-1.84-.96l-34.06-39.21c-.34-.4-.68-.88-.92-.88-.59,0-.5.4-.5,1.28v38.88c0,.49-.25.8-.85.8h-3.85c-.59,0-.68-.24-.68-.8v-47.68"/>
  <path class="cls-1" d="M489.93,283.13c-.33.08-.73-.31-.73-.54-.65-3.31-6.38-10.77-17.28-10.77-12.34,0-20.58,9.32-20.58,21.25s8.89,20,19.95,20c10.41,0,18.24-5.07,19.46-15.31.08-.15-.17-.46-.49-.46-2.58,0-18.56-.08-18.56-.08l-.49-.38-.47-3.62.32-.39s13.16.08,19.53.08c2.1,0,5.33-.15,5.33-.15.56-.09.65.31.65.46.08,12.55-8.15,24.56-24.46,24.56s-26-10.4-26-24.4c0-16.4,12.03-26.09,25.83-26.09s21.39,9.77,22.21,13.99c.08.24,0,.63-.33.7l-3.87,1.16"/>
  <path class="cls-1" d="M571.73,295.79c0,14.29-10.79,21.98-23.37,21.98s-23.39-7.69-23.39-21.98v-27.7c0-.7.33-.78.99-.7l3.46.54c.74.16.82.39.82,1.33v26.52c0,11.07,7.98,16.95,18.12,16.95s18.1-5.88,18.1-16.95v-26.84c0-.54.16-.94.65-1.02l3.8-.54c.57-.08.82.15.82.7v27.7"/>
  <path class="cls-1" d="M605.04,267.34c.59,0,.59.32.59.56v43.71c0,.87,0,1.04.92,1.04h24.08c1.51,0,2.6-.25,3.27-.32.42-.08.51,0,.59.48l.25,4.24q0,.72-.59.72h-33.14c-.58,0-.83-.32-.83-.81v-48.98c0-.4,0-.64.75-.64h4.11"/>
  <path class="cls-1" d="M680.73,268.23c.25-.48.51-.89,1.02-.89h3.99c.51,0,.77.4.93.89l24.62,48.96c.16.33.08.57-.34.57h-4.92c-.68,0-.94-.4-1.2-.97l-5.26-10.68c-.17-.4-.43-.8-1.02-.8l-29.62-.08c-.51,0-.76.4-1.02.89l-4.75,9.71c-.25.49-.42.9-.85,1.71-.17.32-.76.24-1.52.24h-4.33l-.17-.24,24.44-49.29M683.19,275.04l-12.39,25c-.17.41-.25.65.25.65h24.7c.77,0,1.02-.25.6-1.06l-12.15-24.77c-.08-.23-.16-.49-.51-.49s-.34.33-.51.66Z"/>
  <path class="cls-1" d="M757.5,267.34c10.41,0,16.6,6.54,16.6,14.18,0,8.65-8.43,13.94-17.01,13.94h-6.03c-.58,0-.91.16-.5.55.99,1.02,2.89,2.59,4.38,4.02,4.45,4.16,9.58,8.42,15.36,11.41,1.73.95,3.56,1.5,5.54,1.73.66.08.49.71.25,1.11l-1.57,2.91c-.25.48-.42.72-1.24.48-2.47-.56-5.04-1.58-7.43-3.07-6.94-4.33-12.89-9.45-17.76-14.02-1.89-1.73-4.3-3.71-4.3-3.71-1.64-1.42-2.31-1.73-4.62-1.73-.66,0-.91.24-.91.78v20.96c0,.63,0,.87-.83.87h-3.8c-.41,0-.74-.25-.74-.87v-48.61c0-.79.16-.95.99-.95h23.63M756,290.97c6.86,0,12.65-3.31,12.65-9.92,0-4.33-3.56-9.3-10.82-9.3h-18.83c-.49,0-.74.23-.74.55v18.11c0,.48.32.56.82.56h16.93Z"/>
  <path class="cls-1" d="M330.49,345.81c11.72,0,16.98,6.9,16.98,13.81,0,8.14-6.47,13.97-15.86,13.97h-20.34c-.78,0-1.21.66-1.21,1.31v21.13c0,.99-.26.99-.87.99h-3.88c-.6,0-.87-.33-.87-.82v-48.91c0-1.07.35-1.48,1.3-1.48h24.74M330.49,368.92c7.5,0,11.29-4.61,11.47-9.22.08-4.6-3.71-9.29-11.47-9.29h-19.48c-.52,0-.95.5-.95.99v16.28c0,.66.52,1.24,1.21,1.24h19.22Z"/>
  <path class="cls-1" d="M375.91,346.55c0-.49,0-.73.52-.73h4.38c.44,0,.6.32.6.73v21.34c0,.57.18.75.7.75h37.44c.44,0,.6-.25.6-.83v-21.17c0-.66.09-.82.78-.82h4.04c.6,0,.69.16.69.82v49.64c0,.41-.26.74-.69.74h-4.22c-.51,0-.6-.25-.6-.82v-21.5c0-.58-.16-.82-.6-.82h-37.44c-.7,0-.7.09-.7.74v21.67c0,.41-.16.74-.77.74h-3.96c-.42,0-.77-.08-.77-.74v-49.73"/>
  <path class="cls-1" d="M478.95,346.73c.27-.5.52-.91,1.04-.91h4.05c.52,0,.77.41.95.91l24.99,49.71c.18.32.08.58-.34.58h-5c-.68,0-.94-.4-1.2-.98l-5.35-10.85c-.16-.42-.42-.83-1.04-.83l-30.07-.08c-.52,0-.77.41-1.03.9l-4.83,9.86c-.26.5-.42.9-.86,1.72-.18.34-.77.25-1.55.25h-4.4l-.18-.25,24.82-50.04M481.46,353.62l-12.59,25.4c-.18.41-.26.66.25.66h25.08c.78,0,1.04-.25.61-1.06l-12.32-25.16c-.08-.25-.17-.49-.51-.49-.36,0-.36.32-.52.65Z"/>
  <path class="cls-1" d="M563.51,345.81c10.57,0,16.86,6.64,16.86,14.4,0,8.8-8.55,14.16-17.28,14.16h-6.12c-.59,0-.92.15-.51.56,1.01,1.04,2.94,2.64,4.45,4.08,4.53,4.24,9.74,8.56,15.61,11.59,1.77.97,3.61,1.52,5.62,1.77.67.08.5.72.25,1.11l-1.59,2.97c-.24.48-.42.72-1.25.48-2.52-.56-5.12-1.61-7.55-3.12-7.05-4.4-13.09-9.6-18.03-14.25-1.94-1.76-4.37-3.76-4.37-3.76-1.67-1.44-2.35-1.75-4.7-1.75-.66,0-.91.23-.91.8v21.29c0,.63,0,.88-.84.88h-3.86c-.42,0-.76-.25-.76-.88v-49.37c0-.8.17-.96,1.01-.96h23.99M562,369.81c6.96,0,12.83-3.36,12.83-10.08,0-4.4-3.61-9.44-10.99-9.44h-19.14c-.49,0-.75.24-.75.56v18.4c0,.48.33.56.84.56h17.19Z"/>
  <path class="cls-1" d="M632.15,372.98c-6.35-6.95-12.95-15.21-14.92-17.26-.18-.24-.52-.49-.52.25v40.24c0,.82-.44.82-.77.82h-4.29c-.34,0-.6,0-.6-.73v-49.64c0-.58.17-.73.52-.73l3.34-.09c.61,0,.69-.08,1.11.41,0,0,10.39,12.59,16.81,19.47.26.33.43.49.78.49.42,0,.59-.16.85-.49,6.43-6.88,16.81-19.47,16.81-19.47.35-.41.17-.49,1.12-.41l3.26.16c.59.09.68.41.68.9v49.32c0,.58-.34.82-.77.82h-4.37c-.44,0-.61-.24-.61-.66v-40.4c0-.74-.34-.49-.51-.25-1.98,2.05-8.58,10.31-14.92,17.26-.18.24-.52.73-1.54.73-.95,0-1.29-.49-1.46-.73"/>
  <path class="cls-1" d="M709.63,346.73c.26-.5.53-.91,1.04-.91h4.05c.52,0,.78.41.95.91l25,49.71c.17.32.08.58-.35.58h-5c-.68,0-.94-.4-1.2-.98l-5.35-10.85c-.17-.42-.43-.83-1.03-.83l-30.08-.08c-.52,0-.78.41-1.04.9l-4.82,9.86c-.27.5-.43.9-.86,1.72-.18.34-.78.25-1.55.25h-4.4l-.18-.25,24.83-50.04M712.14,353.62l-12.59,25.4c-.16.41-.25.66.27.66h25.08c.78,0,1.04-.25.61-1.06l-12.33-25.16c-.08-.25-.18-.49-.52-.49s-.35.32-.51.65Z"/>
  <g>
    <path class="cls-1" d="M617.95,438.88l-.11-.02-.49.24-.06.1c-.64,1.15-2.21,2.38-4.68,2.38-2.25,0-5.84-1.42-5.84-5.23,0-2.66,1.79-5.52,5.71-5.52,2.47,0,3.9,1.05,4.23,2.09l.03.1.5.44,1.37-.43.17-.54v-.09c-.3-1.72-2.6-3.56-6.29-3.56-4.68,0-7.94,3.09-7.94,7.51s3.37,6.58,6.41,7.1l-.36,1.26.66.49,1.03-.14c.17-.01.3.02.36.15,0,.14-.35.32-.75.32-.8,0-1.44-.29-1.91-.87l-.12-.14-.69.04-.56.67.08.54.07.08c.52.61,1.3,1.02,2.34,1.24.21.04.44.07.7.07.59,0,1.24-.14,1.73-.48.46-.32.75-.77.83-1.33.07-.46-.06-.92-.33-1.27-.2-.25-.48-.43-.83-.5,2.88-.22,5.32-1.99,6.1-3.72l.06-.14-.27-.68-1.18-.15Z"/>
    <path class="cls-1" d="M387.35,429.17l-.38.16-.14.1s-2.72,3.23-4.41,5.01c-1.68-1.78-4.37-4.98-4.4-5.01l-.51-.25-1.16.04-.3.43v13.21l.34.44h1.48l.41-.43v-9.95c.19.22.41.49.67.78.76.89,1.8,2.11,2.8,3.19l.65.35.57-.27.11-.08c.99-1.07,2.03-2.28,2.79-3.16.26-.3.49-.57.69-.8v9.97l.36.4h1.48l.41-.43v-13.16l-.35-.47-1.12-.07Z"/>
    <path class="cls-1" d="M411.8,429.24h-1.35l-.37.33-6.66,13.13-.05.25.22.35h1.43s.57-.11.57-.11l1.57-3.11.12-.1,7.7.02.12.09,1.37,2.74.52.46h1.62l.35-.48-6.72-13.14-.43-.43ZM411.12,432.16l2.93,5.9h-5.91l2.98-5.9Z"/>
    <path class="cls-1" d="M444.85,429.22l-.56.41v10.04l-9-10.21-.69-.32-.82.07c-.62,0-.62.55-.62.75v12.88l.38.44h1.36l.45-.41v-10.14l9.01,10.19.59.35.99.09.53-.49v-13.14l-.44-.52h-1.19Z"/>
    <path class="cls-1" d="M467.83,429.22l-.41.53v13.13l.45.41h1.14c.51,0,.61-.28.61-.69v-12.91l-.46-.47h-1.33Z"/>
    <path class="cls-1" d="M498.41,429.24h-6.71l-.54.6v13.04l.45.41h1.34l.42-.49v-5.49l.12-.12h5.22c2.64,0,4.56-1.68,4.56-4,0-1.97-1.5-3.96-4.85-3.96ZM501.08,433.21c-.03.99-.88,2.05-2.66,2.05h-4.94l-.11-.11v-3.94l.05-.05h5c1.16,0,1.8.41,2.14.76.35.36.53.82.52,1.28Z"/>
    <path class="cls-1" d="M530.89,429.29l-.34.51v7.42c0,2.59-1.82,4.26-4.65,4.26s-4.66-1.67-4.66-4.26v-7.34l-.37-.58-1.25-.2-.56.38v7.73c0,4.39,3.43,6.35,6.84,6.35s6.84-1.96,6.84-6.35v-7.71l-.48-.41-1.37.19Z"/>
    <path class="cls-1" d="M559.16,441.1h-.14c-.06.02-.12.03-.19.04-.16.02-.38.06-.65.06h-6.38l-.06-.06v-11.56l-.37-.36h-1.4l-.44.36v13.3l.48.41h9.32l.35-.46-.09-1.41-.41-.32Z"/>
    <path class="cls-1" d="M583.95,429.24h-1.36l-.37.32-6.65,13.14-.04.23.19.36h1.45s.59-.11.59-.11l1.55-3.11.12-.1,7.7.02.12.09,1.37,2.74.52.46h1.66l.29-.5-6.7-13.12-.42-.43ZM583.27,432.16l2.94,5.9h-5.92l2.98-5.9Z"/>
    <path class="cls-1" d="M637.49,427.45l.08.05c.28.14,1.06.25,1.61.25h.11c.76-.04,1.14-.16,1.5-.28.28-.09.57-.19,1.09-.25.5-.02,1.04.05,1.6.32l.19.09.53-.33-.31-1.28-.27-.28-.07-.06c-.14-.08-.93-.4-1.74-.33-.76.04-1.17.2-1.53.35-.27.11-.51.2-.89.23-.59.06-1.46-.14-1.82-.37l-.25-.16-.44.44.27,1.33.33.28Z"/>
    <path class="cls-1" d="M641.32,429.25h-1.33l-.38.32-6.66,13.13-.04.24.19.36h1.45s.59-.11.59-.11l1.56-3.11.12-.1,7.7.02.11.09,1.37,2.74.52.46h1.67l.29-.5-6.7-13.12-.44-.43ZM640.64,432.16l2.93,5.89h-5.9l2.97-5.89Z"/>
    <path class="cls-1" d="M669.34,428.84c-4.5,0-8.15,3.31-8.15,7.38s3.66,7.38,8.15,7.38,8.19-3.31,8.19-7.38-3.68-7.38-8.19-7.38ZM675.31,436.22c0,2.88-2.67,5.23-5.96,5.23s-5.93-2.35-5.93-5.23,2.66-5.24,5.93-5.24,5.96,2.35,5.96,5.24Z"/>
  </g>
</svg>