<?xml version="1.0" encoding="UTF-8"?>
<svg id="Layer_1" data-name="Layer 1" xmlns="http://www.w3.org/2000/svg" viewBox="0 0 841.89 595.28">
  <defs>
    <style>
      .cls-1 {
        fill: #fff;
      }
    </style>
  </defs>
  <path class="cls-1" d="M220.57,359.74c-3.46,0-5.95.55-7.68,1.45-2.49,1.31-3.67,3.25-3.67,5.26,0,3.32,2.9,5.05,3.87,5.46,1.52.55,4.01,1.59,7.88,2.49,4.15.9,8.3,2.21,11.48,4.22,3.11,2.07,5.26,4.98,5.26,9.13,0,3.11-1.11,5.95-3.18,8.16-2.84,3.04-7.54,4.98-13.9,4.98-5.39,0-12.86-2.15-16.88-6.85-.55-.62-.62-1.32,0-1.8l1.8-1.45c.97-.76.97-.21,1.45.35,3.8,3.6,8.44,5.26,13.63,5.26,3.46,0,6.09-.63,8.02-1.66,3.25-1.73,4.57-4.5,4.57-6.78,0-2.49-1.18-4.29-3.11-5.67-2.28-1.66-5.67-2.63-9.48-3.46-4.22-.97-7.82-2.21-9.82-3.25-2.84-1.38-6.09-4.29-6.09-8.99,0-3.6,2.21-6.92,5.74-8.85,2.49-1.38,5.88-2.21,9.89-2.21,5.53,0,11.55,2,13.9,3.32.69.35.76,1.04.62,1.45l-.69,2.21c-.28.69-.97.62-1.66.21-.83-.55-6.02-2.97-11.97-2.97"/>
  <path class="cls-1" d="M266,355.48c.58,0,.79.29.79.86v43.47c0,1.08-.14,1.08-.79,1.08h-3.17c-.43,0-.72-.14-.72-.72v-43.69c0-.65.22-1.01.72-1.01h3.17Z"/>
  <path class="cls-1" d="M291.19,357.04c0-1.15.22-1.3.79-1.3l2.37-.22c.79-.07.79-.21,1.51.65l29.08,35.12c.36.5.57.79.94.79.29,0,.43-.14.43-.86v-34.91c0-.65.14-.79,1.01-.79h2.81c.72,0,.79.29.79,1.01v43.4c0,.94-.22,1.01-.93.94l-2.16-.15c-.65-.07-.79.07-1.58-.86l-29.22-35.27c-.29-.36-.58-.79-.79-.79-.5,0-.43.36-.43,1.15v34.98c0,.43-.22.72-.72.72h-3.31c-.5,0-.57-.22-.57-.72v-42.89Z"/>
  <path class="cls-1" d="M392.91,369.73c-.28.07-.62-.28-.62-.49-.55-2.98-5.47-9.69-14.82-9.69-10.6,0-17.66,8.38-17.66,19.11s7.62,18,17.1,18c8.93,0,15.65-4.57,16.69-13.78.07-.14-.14-.42-.42-.42-2.22,0-15.93-.07-15.93-.07-.21,0-.35-.14-.41-.35l-.42-3.25c0-.14.14-.35.28-.35,0,0,11.29.07,16.76.07,1.8,0,4.57-.14,4.57-.14.49-.07.55.28.55.42.07,11.29-6.99,22.09-20.98,22.09s-22.3-9.35-22.3-21.95c0-14.75,10.32-23.48,22.16-23.48s18.35,8.79,19.04,12.6c.07.21,0,.55-.28.62l-3.32,1.04Z"/>
  <path class="cls-1" d="M463.09,381.12c0,12.85-9.25,19.77-20.05,19.77s-20.05-6.92-20.05-19.77v-24.92c0-.64.28-.71.85-.64l2.97.49c.64.14.71.35.71,1.2v23.86c0,9.96,6.85,15.25,15.53,15.25s15.53-5.29,15.53-15.25v-24.15c0-.49.14-.85.56-.92l3.25-.49c.49-.07.71.14.71.64v24.92Z"/>
  <path class="cls-1" d="M491.66,355.53c.5,0,.5.29.5.5v39.32c0,.79,0,.94.79.94h20.66c1.3,0,2.23-.22,2.81-.29.36-.08.43,0,.5.43l.22,3.81q0,.65-.5.65h-28.43c-.51,0-.72-.29-.72-.72v-44.07c0-.36,0-.57.65-.57h3.53Z"/>
  <path class="cls-1" d="M556.59,356.33c.22-.43.44-.8.87-.8h3.42c.44,0,.65.36.8.8l21.11,44.04c.15.29.07.51-.29.51h-4.22c-.58,0-.8-.36-1.02-.87l-4.51-9.61c-.15-.37-.36-.73-.87-.73l-25.41-.07c-.44,0-.65.36-.87.8l-4.08,8.74c-.22.44-.36.8-.73,1.53-.15.29-.65.22-1.31.22h-3.71c-.15,0-.22-.07-.15-.22l20.97-44.33ZM558.7,362.44l-10.63,22.5c-.14.36-.22.58.22.58h21.18c.66,0,.88-.22.51-.94l-10.41-22.28c-.07-.22-.15-.44-.44-.44s-.29.29-.44.58"/>
  <path class="cls-1" d="M622.44,355.53c8.93,0,14.24,5.88,14.24,12.75,0,7.79-7.23,12.54-14.6,12.54h-5.17c-.5,0-.78.14-.43.5.85.92,2.48,2.34,3.76,3.61,3.83,3.75,8.22,7.58,13.18,10.27,1.49.85,3.05,1.35,4.75,1.56.57.07.42.64.21.99l-1.35,2.62c-.21.42-.35.64-1.06.42-2.13-.49-4.32-1.42-6.38-2.76-5.95-3.9-11.05-8.5-15.24-12.61-1.63-1.56-3.68-3.33-3.68-3.33-1.42-1.27-1.98-1.56-3.97-1.56-.57,0-.78.21-.78.71v17.65c0,.57,0,.78-.71.78h-3.26c-.35,0-.64-.21-.64-.78v-42.52c0-.71.14-.85.85-.85h20.27ZM621.17,376.78c5.88,0,10.84-2.97,10.84-8.93,0-3.9-3.05-8.36-9.28-8.36h-16.16c-.42,0-.64.21-.64.49v16.3c0,.43.28.5.71.5h14.53Z"/>
  <path class="cls-1" d="M252.55,431.83c10.06,0,14.57,6.21,14.57,12.43,0,7.32-5.55,12.57-13.61,12.57h-17.45c-.67,0-1.03.59-1.03,1.18v19.01c0,.88-.22.88-.74.88h-3.33c-.52,0-.74-.29-.74-.74v-44c0-.96.3-1.33,1.11-1.33h21.22ZM252.55,452.61c6.43,0,9.69-4.14,9.84-8.28.07-4.14-3.18-8.36-9.84-8.36h-16.71c-.44,0-.81.45-.81.89v14.64c0,.59.44,1.11,1.03,1.11h16.49Z"/>
  <path class="cls-1" d="M291.51,432.5c0-.44,0-.67.44-.67h3.77c.37,0,.52.3.52.67v19.2c0,.52.15.67.59.67h32.12c.37,0,.52-.22.52-.74v-19.05c0-.59.07-.74.66-.74h3.47c.52,0,.59.15.59.74v44.67c0,.37-.22.66-.59.66h-3.62c-.44,0-.52-.22-.52-.74v-19.34c0-.52-.15-.74-.52-.74h-32.12c-.59,0-.59.07-.59.66v19.49c0,.37-.15.66-.66.66h-3.4c-.37,0-.66-.07-.66-.66v-44.74Z"/>
  <path class="cls-1" d="M379.91,432.64c.22-.44.44-.81.89-.81h3.48c.44,0,.67.37.81.81l21.44,44.73c.15.3.07.52-.3.52h-4.29c-.59,0-.81-.37-1.03-.88l-4.59-9.76c-.15-.37-.37-.74-.89-.74l-25.81-.07c-.44,0-.67.37-.89.81l-4.14,8.87c-.22.44-.37.81-.74,1.55-.15.3-.67.22-1.33.22h-3.77c-.15,0-.22-.07-.15-.22l21.29-45.03ZM382.05,438.85l-10.8,22.85c-.15.37-.22.59.22.59h21.52c.66,0,.89-.22.52-.96l-10.57-22.63c-.07-.22-.15-.44-.44-.44s-.29.3-.44.59"/>
  <path class="cls-1" d="M452.44,431.83c9.07,0,14.47,5.97,14.47,12.95,0,7.92-7.34,12.74-14.83,12.74h-5.25c-.5,0-.79.15-.43.5.87.94,2.52,2.37,3.81,3.67,3.89,3.81,8.35,7.7,13.39,10.44,1.51.86,3.09,1.37,4.82,1.58.57.07.43.65.22,1.01l-1.37,2.66c-.21.43-.36.65-1.08.43-2.16-.5-4.39-1.44-6.48-2.81-6.04-3.96-11.23-8.63-15.47-12.81-1.66-1.58-3.74-3.38-3.74-3.38-1.44-1.3-2.01-1.58-4.03-1.58-.57,0-.79.22-.79.72v17.92c0,.58,0,.79-.72.79h-3.31c-.36,0-.65-.22-.65-.79v-43.18c0-.72.14-.86.86-.86h20.58ZM451.15,453.42c5.97,0,11.01-3.02,11.01-9.07,0-3.96-3.09-8.49-9.43-8.49h-16.41c-.43,0-.65.22-.65.5v16.55c0,.43.29.5.72.5h14.75Z"/>
  <path class="cls-1" d="M511.32,456.27c-5.45-6.25-11.11-13.69-12.8-15.52-.15-.22-.44-.44-.44.22v36.2c0,.73-.37.73-.66.73h-3.68c-.29,0-.51,0-.51-.66v-44.66c0-.51.15-.66.44-.66l2.87-.07c.51,0,.59-.08.96.37,0,0,8.9,11.33,14.42,17.51.22.29.37.44.66.44.37,0,.52-.15.74-.44,5.52-6.18,14.42-17.51,14.42-17.51.29-.37.15-.44.96-.37l2.8.15c.51.08.59.37.59.81v44.37c0,.51-.29.73-.66.73h-3.75c-.37,0-.51-.22-.51-.59v-36.35c0-.66-.3-.44-.44-.22-1.69,1.84-7.36,9.27-12.8,15.52-.15.22-.44.66-1.32.66-.81,0-1.1-.44-1.25-.66"/>
  <path class="cls-1" d="M577.79,432.64c.22-.44.44-.81.89-.81h3.48c.44,0,.67.37.81.81l21.44,44.73c.15.3.07.52-.3.52h-4.29c-.59,0-.81-.37-1.04-.88l-4.58-9.76c-.15-.37-.37-.74-.89-.74l-25.81-.07c-.45,0-.67.37-.89.81l-4.14,8.87c-.22.44-.37.81-.74,1.55-.15.3-.67.22-1.33.22h-3.77c-.15,0-.22-.07-.15-.22l21.3-45.03ZM579.94,438.85l-10.8,22.85c-.15.37-.22.59.22.59h21.52c.67,0,.89-.22.52-.96l-10.57-22.63c-.08-.22-.15-.44-.44-.44s-.3.3-.44.59"/>
  <path class="cls-1" d="M294.15,515.37c-1.43-1.65-2.93-3.61-3.38-4.09-.04-.06-.12-.12-.12.06v9.55c0,.19-.1.19-.17.19h-.97c-.08,0-.14,0-.14-.17v-11.78c0-.14.04-.17.12-.17l.76-.02c.14,0,.16-.02.25.1,0,0,2.34,2.99,3.8,4.62.06.08.1.12.18.12.1,0,.13-.04.19-.12,1.45-1.63,3.8-4.62,3.8-4.62.08-.1.04-.12.25-.1l.74.04c.13.02.15.1.15.21v11.7c0,.13-.08.19-.17.19h-.99c-.1,0-.14-.06-.14-.15v-9.58c0-.17-.08-.12-.12-.06-.44.48-1.94,2.44-3.38,4.09-.04.06-.12.18-.35.18-.21,0-.29-.12-.33-.18"/>
  <path class="cls-1" d="M318.21,509.2c.06-.12.12-.22.23-.22h.91c.12,0,.18.1.21.22l5.63,11.74c.04.08.02.13-.08.13h-1.12c-.15,0-.21-.1-.27-.23l-1.21-2.56c-.04-.1-.1-.19-.23-.19l-6.77-.02c-.12,0-.17.1-.23.22l-1.09,2.33c-.06.12-.1.22-.19.41-.04.08-.17.06-.35.06h-.99s-.06-.02-.04-.06l5.59-11.82ZM318.77,510.83l-2.83,5.99c-.04.1-.06.16.06.16h5.64c.18,0,.23-.06.14-.25l-2.77-5.94c-.02-.06-.04-.12-.12-.12s-.08.08-.12.15"/>
  <path class="cls-1" d="M337.98,509.31c0-.31.06-.35.21-.35l.64-.06c.21-.02.21-.06.41.17l7.84,9.47c.1.14.16.21.25.21.08,0,.12-.04.12-.23v-9.35c0-.18.04-.22.27-.22h.76c.19,0,.21.08.21.27v11.64c0,.25-.06.27-.25.25l-.58-.04c-.18-.02-.21.02-.43-.23l-7.88-9.51c-.08-.1-.16-.22-.21-.22-.14,0-.12.1-.12.31v9.43c0,.12-.06.19-.19.19h-.89c-.13,0-.15-.06-.15-.19v-11.56Z"/>
  <path class="cls-1" d="M368.17,508.96c.16,0,.21.08.21.23v11.58c0,.29-.04.29-.21.29h-.85c-.12,0-.19-.04-.19-.19v-11.64c0-.18.06-.27.19-.27h.85Z"/>
  <path class="cls-1" d="M393.19,508.98c2.64,0,3.82,1.63,3.82,3.26,0,1.92-1.45,3.3-3.57,3.3h-4.58c-.17,0-.27.15-.27.31v4.99c0,.23-.06.23-.19.23h-.87c-.14,0-.2-.08-.2-.19v-11.54c0-.25.08-.35.29-.35h5.57ZM393.19,514.44c1.69,0,2.54-1.09,2.58-2.17.02-1.09-.83-2.19-2.58-2.19h-4.38c-.12,0-.21.12-.21.23v3.84c0,.16.12.29.27.29h4.33Z"/>
  <path class="cls-1" d="M422.1,515.89c0,3.53-2.54,5.43-5.51,5.43s-5.51-1.9-5.51-5.43v-6.85c0-.17.08-.19.23-.17l.81.13c.18.04.19.1.19.33v6.56c0,2.73,1.88,4.19,4.27,4.19s4.27-1.45,4.27-4.19v-6.64c0-.14.04-.23.16-.25l.89-.13c.14-.02.19.04.19.17v6.85Z"/>
  <path class="cls-1" d="M438.13,508.96c.14,0,.14.08.14.13v10.48c0,.21,0,.25.21.25h5.57c.35,0,.6-.06.76-.08.1-.02.12,0,.14.12l.06,1.03q0,.17-.14.17h-7.66c-.13,0-.19-.08-.19-.19v-11.76c0-.1,0-.15.18-.15h.95Z"/>
  <path class="cls-1" d="M464.72,509.2c.06-.12.12-.22.23-.22h.91c.12,0,.17.1.21.22l5.63,11.74c.04.08.02.13-.08.13h-1.12c-.15,0-.21-.1-.27-.23l-1.2-2.56c-.04-.1-.1-.19-.23-.19l-6.77-.02c-.12,0-.17.1-.23.22l-1.09,2.33c-.06.12-.1.22-.19.41-.04.08-.17.06-.35.06h-.99s-.06-.02-.04-.06l5.59-11.82ZM465.28,510.83l-2.83,5.99c-.04.1-.06.16.06.16h5.65c.17,0,.23-.06.14-.25l-2.78-5.94c-.02-.06-.04-.12-.11-.12s-.08.08-.12.15"/>
  <path class="cls-1" d="M483.83,515.1c0-3.92,2.75-6.48,6.44-6.48,2.97,0,4.83,1.53,5.05,2.95.02.04.02.22-.08.25l-.83.29c-.12.04-.19-.1-.23-.21-.29-.97-1.49-2.13-3.9-2.13-3.26,0-5.16,2.48-5.16,5.33,0,3.47,2.97,5.08,5.28,5.08s3.65-1.16,4.25-2.33c.04-.08.13-.15.25-.13l.82.12c.14,0,.18.21.12.31-.7,1.65-2.95,3.22-5.43,3.2h-.14c-.06.2-.12.45-.14.5-.04.14,0,.16.1.18.18-.06.33-.08.53-.08.6.06.93.68.85,1.26-.2,1.3-1.65,1.47-2.41,1.3-1.07-.23-1.57-.7-1.82-1.01-.12-.14-.08-.14-.04-.25l.31-.39c.08-.1.18-.14.29-.02.33.45.91.91,1.86.91.45,0,.95-.21.95-.62,0-.27-.2-.49-.64-.47-.25,0-.52.06-.78.12-.13.02-.35-.02-.29-.23l.35-1.28c-2.68-.35-5.55-2.17-5.55-6.17"/>
  <path class="cls-1" d="M513.56,509.2c.06-.12.12-.22.23-.22h.91c.12,0,.18.1.22.22l5.62,11.74c.04.08.02.13-.08.13h-1.12c-.16,0-.21-.1-.27-.23l-1.2-2.56c-.04-.1-.1-.2-.23-.2l-6.77-.02c-.12,0-.18.1-.23.21l-1.09,2.33c-.06.12-.1.21-.19.41-.04.08-.18.06-.35.06h-.99s-.06-.02-.04-.06l5.59-11.82ZM514.12,510.83l-2.83,6c-.04.1-.06.15.06.15h5.65c.17,0,.23-.06.13-.25l-2.77-5.94c-.02-.06-.04-.12-.12-.12s-.08.08-.12.15M516.72,505.9l.19.83c.02.12-.02.12-.12.08-.27-.13-.85-.41-1.53-.31-1.05.13-1.09.41-2.19.47-.45.02-1.13-.1-1.32-.19-.13-.08-.19-.12-.19-.18l-.17-.93c-.04-.19-.04-.18.08-.08.37.25,1.16.43,1.73.39.83-.06.95-.47,2.05-.53.6-.03,1.24.22,1.3.25.13.08.13-.02.17.19"/>
  <path class="cls-1" d="M545.33,514.98c0,3.53-3.01,6.36-6.66,6.36s-6.63-2.83-6.63-6.36,3.01-6.36,6.63-6.36,6.66,2.81,6.66,6.36M533.32,514.98c0,2.77,2.37,5.08,5.35,5.08s5.38-2.31,5.38-5.08-2.39-5.08-5.38-5.08-5.35,2.31-5.35,5.08"/>
  <path class="cls-1" d="M436.16,75.52c-.05.28-.86,1.02-.86,1.22.12,1.39.61,2.13.47,3.58-.05.28-.86,1-.86,1.22.13,1.39.63,2.14.47,3.55-.09.69-1.03,1.47-1.11,2.13-.08.78.5,1.36.39,2.08-.25,1.58-.92,3-1.31,4.52-.33,1.41-.39,2.8-.69,4.21-.52,2.39-1,4.3-1.5,6.91-.3,1.61-.61,4.38-.89,6.6-.08.47-.61.22-.28.92.08.17.11,1.25.08,1.5-.05.28-.86,1-.86,1.22.14,1.45.56,2.08.47,3.55-.03.44-.61.22-.28.91.55,1.11-.8,2.19-1.03,3.64-.08.64.5,1.36.39,2.05-.17,1.14-.94,2.05-1.03,3.63-.05.89.03,1.58-.19,2.38-.11.44.11,1.88.14,2.99,0,3-.98,5.95-.12,9.12-.6,1.97-.05,4.96-.58,6.95-.66,2.52-1.57,4.45-2.16,6.99-.45,1.98-.89,3.97-1.32,5.96-.31,1.43.08,6.92.41,8.11.44,1.47.88,2.85.81,4.13-.03.3.5,1.8.39,2.08-.06.11-.58.22-.58.3-.03.31.75.92.64,1.16-.44,1.11-.66,1.64-.44,3.33.03.25.72.94.64,1.16-.03.06-.58.22-.58.3.17,1.22.42,3.38.78,4.13.42.86-.36,2.02-.44,3.3-.03.42-.25.69-.28.91-.03,1,.72,1.63.72,2.66,0,.31-.83.94-.83,1.22.11,1.3.77,2.55.77,4.13,0,.92-.28,1.47-.19,2.41.08,1.06.58,1.56.72,2.64.03.33-.58.28-.28.91.5,1,0,.86.09,1.5.33,3.61.97,7.01,1.36,10.68.03.25.72.94.64,1.16-.3.75-.58.89-.52,1.8.14,1.78,1.14,4.49.61,6.55-.25.86.94,3.85.83,5.63-.05.64.39,2.05.45,3.55.02.89-.31,1.47-.19,2.38.3,2.05,1.36,3.69,1.75,5.88.06.25-.55.34-.25.92.08.17.3.42.33.59.22,1.88.75,6.35,1.28,9.18.39,1.94,1.14,3.55,1.44,5.32.03.25-.56.31-.28.89.3.63.47,2.52.8,4.16.03.22-.55.31-.28.88.64,1.28,1.39,2.52,1.69,4.41.03.28-.56.3-.25.91.14.28.03,1.08.05,1.47.09,1.14.25,2.05.45,3.58.11.69.14,1.14.39,2.05.22.83,1.19,4.27,2.08,6.49.69,1.72,1.47,3.16,2,4.97.33,1.08.22,2.33.47,3.55.19,1.05.83,2.3,1.02,3.24.03.11-.39.44-.25.92.08.36.64.77.64,1.16,0,.33-.86.97-.83,1.22.08,1.19.36,1.49.11,2.96-.03.28-.83,1.03-.83,1.25.03.36.69.81.67,1.16-.11.86-1.03,1.8-.47,3.3-.78.28-1.83-4.3-1.75-5.91.05-.91-.69-1.3-1.03-3.22-.06-.25.56-.3.25-.91-.33-.66-.91-4.13-.83-5.63.05-.78-.14-1.11-.39-2.08-1.39-5.08-3.88-13.17-5.63-19.72-.36-1.31-.44-3.33-1.11-4.72-.55-1.14-.41-2.74-.77-4.16-.36-1.3-.75-2.08-1.02-3.22-.5-1.89-1.22-3.94-1.78-5.91-.61-2.16-1.44-4.38-2.05-6.46-.31-.94-.75-2.27-1.05-3.24-.22-.81-.53-2.5-.44-3.55.03-.28-.5-1.78-.39-2.06.06-.11.58-.22.58-.33,0-.28-.75-.91-.64-1.16.94-2.41.39-6.77-.47-10.43-.64-.36-2.11.03-1.22-.83-.14-2.19-1.47-3.66-2.08-6.46-.14-.64-.14-1.19-.39-2.08-.17-.61-.5-1.63-.72-2.66-.14-.64-.14-1.16-.39-2.05-.19-.75-.22-1.36-1.03-3.25-.25-.58.31-.72.25-.92-.3-.97-1.08-.14-1.28-2.32-.05-.31.56-.25.25-.89-.17-.33-.58-3.13-.78-4.16-.22-1.14-1.14-2.63-1.36-3.8-.09-.36.58-1.55.5-1.8-.33-1.64-.97-1.86-1.33-3.83-.05-.25.53-.3.25-.91-.33-.64-.58-2.88-.78-4.13-.19-1.08-.25-2.47-.47-3.55-.3-1.53-.89-2.8-.77-4.16.25-3.08-.22-7.82-.5-11.9-.08-1.19.31-3.44-.19-4.46-.3-.58-.22-2-.14-2.97.11-1.55.09-3.27-.86-5.63.75-1.44,2.17-2.66,3.11-4.02-1.41-1.08-.66-2.72-.78-4.13-.05-.92-.39-1.28-.39-2.08,0-.39.61-.22.27-.92-.27-.52.5-2.63.69-4.19.17-1.22.25-2.28.47-3.3.44-2.33,1.05-4.66,1.47-6.93.36-1.94-.22-3.69.64-5.69.17-.34.78-.89.86-1.22.25-1.27-.08-2.63.11-3.88.14-.77.33-1.14.53-1.83.14-.47.61-.2.25-.89-.28-.58.14-1.72.78-2.72.28-.44,1.16-1,1.44-1.56.3-.66-.08-1.75.19-2.41.23-.53,1.2-.97,1.42-1.55.47-1.3.44-2.88.72-4.19.28-1.44.25-2.89.7-4.21.11-.28,1.11-.36,1.16-.64.06-.3-.17-1.25-.05-1.5.25-.5,1.16-.97,1.41-1.56.47-1.16.58-2.61,1.03-3.63.3-.61.3-1.28.52-1.8.28-.64,1.05-.86,1.41-1.56.25-.47.31-1.41.53-1.8.31-.55,1.08-.92,1.42-1.55.13-.28-.2-1.3-.06-1.5.22-.3.97-.3,1.17-.64.27-.5.3-1.36.52-1.83.28-.61.28-1.25.5-1.8.28-.64,1.06-.86,1.44-1.55.22-.47.28-1.41.5-1.8.69-1.25,1.75-3.52,3.38-4.94.67,1.64-.17,3.24-.39,4.8"/>
  <path class="cls-1" d="M396.1,270.76c.25.36,1.28,1.36,1.88,2.02-.03-.03,1.47,1.39,1.55,1.41,1.06.2,3.63,3.5,5.29,5.44,1.5,1.75,3.16,3.88,4.72,5.77,1.58,1.83,3.41,3.75,4.74,5.74,2.77,4.21,4.91,8.68,7.71,12.47.25.36.34.86.64,1.17.19.19.89.41.89.3.25.47-.31.89.08,1.44,1.75,2.58,3.83,4.8,4.79,7.27,1.44,3.63.67,7.43,1.36,10.64-6.38,1.44-9.93-7.04-13.34-11.62-1.14-1.19-2.28-2.27-3.94-1.63-.75-1.55-1.03-1.3-2.22-2.58-.47-.53-1.55-1.88-2.83-3.75-1.11-1.61-2.02-3.05-3.83-5.52-.69-.94-1.25-.92-1.89-1.99-1.11-1.91-1.58-3.99-2.63-6.13-1.03-2.08-2.08-4.47-3.58-6.41-1.31-1.72-3.99-3.38-5.88-5.13-2.44-2.25-4.38-4.74-6.85-6.85-.19-.17-.44-1.11-.66-1.16-1.42-.25-1.16-2.91-2.52-3.16-.97-.16-4.27-4.05-5.63-6.01-3.63-5.32-5.77-12.43-10.04-18.05-.12-.16-.47-1.14-.64-1.16-.06,0-.53.33-.58.33-.75-1.25-.64-2.75-1.36-3.83-.3-.44-1.03-.69-1.55-1.42-2.36-3.35-7.71-10.73-8.74-15.72.44-.39.67-.08.89.25,1.44.31,1.8,1.83,3.1,2.86.42.34,1.22.03,1.83.52.31.25.36.86.64,1.17.39.41,3.08,3.44,4.66,4.27.69.33.89.69,1.56,1.41.66.72,3.69,4.1,5.29,5.43.17.14.56-.13.92.25,1.5,1.61,3.49,3.61,5.32,5.43.14.17.42,1.13.64,1.16.05,0,.53-.33.58-.33,1.72,2.05,3.21,4.93,4.8,7.26,4.35,6.41,8.29,12.56,14.17,17.25,1.22-.53.67,1.22.64,1.16"/>
  <path class="cls-1" d="M465.26,304.71c-2.25,2.13-4.71,4.74-8.99,5.77-.03-1.58,1.75-2.22,2.53-3.69.33-.58,1.8-1.64,2.86-3.11.19-.28-.36-.52.25-.91,1.41-.89,2.63-4.57,3.3-6.37.66-1.86.97-3.61,1.55-5.44.83-2.75,1.72-5.05,2.33-8.18.06-.22.86-1.02.84-1.22-.03-.31-.72-.86-.64-1.17.5-1.91,1.83-3.27,2.44-5.15.22-.67-.56-1.94.19-2.41.69-.42.5-1.53.78-2.72.22-.91.52-1.8.77-2.72.33-1.11.67-1.94.78-2.71.28-1.67-.05-3.58.09-5.36.83-1.05.91-2.3,1.02-3.63.06-.72-.39-1.22-.39-2.08,0-.47.53-1.39.53-1.8-.03-1.44-.69-2.75-.8-4.13-.03-.5.52-1.38.52-1.83,0-.28-.75-.92-.64-1.17.03-.11.56-.19.59-.3,0-.3-.75-.91-.67-1.16.2-.45,1.33-1.11,1.45-1.55.19-.84-.39-1.94-.14-3,.25-1.11,1.38-2.33,1.61-3.94.05-.31-.75-.89-.64-1.16.36-.91.03-3.91-1.17-6.21.2-.36-.11-2.3-1.3-2.33.31-2.03,1.83-3.72-.58-6.55,2.05-1.69-.22-4.08-.25-5.94,0-.39.59-.25.25-.92-.08-.16-.08-1.22-.05-1.5.03-.28.86-1,.83-1.22-.11-1.44-.44-2.08-.44-3.55,0-.39.58-.22.25-.92-.33-.7-.55-1.06-.05-1.47.33-2.22.17-3.91.3-6.29.03-.31.28-.78.28-.89-.03-.69-.78-1.77-.72-2.66,0-.25,1.08-.39,1.16-.64.08-.31-.69-.86-.66-1.17.36-2.02,1.69-4.55,2.41-6.68.33-1.03,1.08-2.08,1.36-3.02.3-1.05.08-2.44.44-3.3.28-.64,1.11-.99,1.41-1.55.28-.47.31-1.39.53-1.83.28-.52,1.14-.91,1.41-1.55.17-.33-.22-1.19-.05-1.47.5-.94,1.63-1.67,2.27-2.8.25-.5.28-1.33.5-1.8.25-.5.56-.72.83-1.22,1.14-1.94,2.44-3.99,3.64-5.82,1.3-2,3.16-3.58,3.63-5.82.94-.75,1.5-.11.89.25.58,1.03,0,1.58-.2,2.39-.11.64-.39,1.24-.5,1.83-.11.56-.44,1.31-.53,1.8-.08.58.53,1.44.39,2.08-.22,1.13-.75,2.27-1.03,3.61-.22,1.08-.8,2.46-1.02,3.63-.28,1.33.14,2.47-.14,3.88-.22,1.19-.78,2.38-1.03,3.63-.25,1.22-.83,2.44-1.05,3.6-.11.61-.44,1.3-.5,1.8-.16,1.16.14,2.36-.14,3.88-.19,1.08-.05,2.27-.14,3.91,0,.53-.47,1.3-.5,1.8-.08,1.22-.03,2.58-.14,3.88-.03.55.5,1.41.39,2.05-.03.3-1.08.39-1.16.66-.08.31.66.83.66,1.16-.06.5-.5,1.33-.53,1.81-.05,1.16-.11,2.33-.13,3.88,0,.59.44,1.36.39,2.08-.08,1.22-.92,2.39-1.03,3.6-.05.72.39,1.22.39,2.08,0,.53-.47,1.33-.53,1.81-.09,1.24-.03,2.6-.11,3.88-.03.47-.53,1.41-.53,1.83.03.86.44,1.28.39,2.05-.03.75-.42,1.19-.53,1.83-.08.69.44,1.24.42,2.05-.06.52-.5,1.36-.53,1.83-.06,1.19.08,2.3-.14,3.88-.17,1.19-.33,1.25.14,2.97.17.66-.28.53-.25.91.08,1.22-.11,2.27-.14,3.88,0,.66.36,1.25.39,2.05.03,1.28-.08,2.66-.14,3.88,0,.53-.5,1.36-.5,1.83-.03.64.41,1.28.39,2.05-.03.52-.5,1.36-.53,1.83-.03.61.45,1.33.39,2.05-.08,1.14-.89,2.3-1.03,3.64-.08.77.5,1.35.39,2.05-.19,1.39-1.14,3.52-1.55,5.46-.17.67.58,1.42.39,2.06-.17.58-1.28,1-1.41,1.55-.17.61.47,1.47.39,2.08-.08.45-.39,1.34-.53,1.81-.31,1.14-.67,2.55-1.94,3.38.78,3.14-1.75,5.38-2.33,8.12-.17,1.78-1.33,3.16-2.44,5.19-.25.42-.3,1.47-.52,1.83-.61.92-1.69,1.83-2.27,2.77-.25.41-.28,1.44-.5,1.8-.8,1.28-2.58,2.69-3.69,4.33-.28.42-.19,1.28-.52,1.83-.44.75-.83,1.66-1.69,2.44"/>
  <path class="cls-1" d="M368.45,149.75c1.86,1.8,5.82,6.9,8.21,10.65.28.47-.28.94.06,1.5-.03-.05.69-.08.92.25,2.49,3.99,5.55,9.15,8.68,14.26-.06-.11.69-.08.92.25.33.55.66,1.16.94,1.75.25.47-.31.94.08,1.5.28.36.92.27.92.25,1.3,2.16,2.22,4.3,3.55,6.41,1.08,1.72,2.44,3.16,3.49,4.91,2.25,3.69,3.66,7.48,5.57,11.4,3.36,6.9,7.35,13.28,10.4,20.1,2.02,4.47,4.16,9.79,5.71,14.36.19.62.83,1.14.97,1.75.05.23.03,2.66.45,3.55.25.5.97.22,1.24.86.33.83.81,4.72,1.47,6.79.61,1.83,1.77,3.68,2.36,5.55.5,1.69,1.02,3.71,1.42,5.29.08.36.08,1.08.05,1.5-.05,1,.8,1.69,1.36,3.83.05.14-.53.36-.25.88.11.22,1.05,1.56.97,1.75-.45,1.14.5,1.05,1.03,3.25.05.16-.53.35-.25.91.09.14.31.39.33.58.06.61.06,2.11.44,3.55.28,1.02,1.35,1.86,1.61,2.91.05.19-.53.34-.26.91.2.39-.08.94.06,1.47.31,1.05,1.33,1.89,1.64,2.91.03.14-.53.39-.28.91.08.17.3.42.33.59.22,1.63,2.13,6.57,2.19,9.43.03.41-.58.25-.25.91.28.58.47,2.69.77,4.13.36,1.72.81,2.86,1.45,5.33.11.47.64,1.83.69,2.66.03.34-.86.95-.83,1.22.08,1.19.22,1.47.14,2.97-.08,1.45.08,2.8-.14,3.88-.22,1.14-1.14,2.72-1.61,3.94-.33.86.25,3.61-1.69,2.47-.83-1.69-.89-2.97-1.11-4.72-.08-.8.14-1.58.19-2.41.03-.36-.78-2.52-.44-3.55-1.19-.97.39-1.22.53-1.81.11-.49-.91-1.21-.08-1.49-2.25-3.91-3.55-8.1-5.3-12.29-1.64-3.94-3.99-7.49-5.57-11.4-.92-2.3-1.31-5.3-2.14-7.96-.14-.47-1.41-1.86-1.3-2.33.03-.05.58-.25.58-.3-.56-1.95-1.92-3.64-2.33-5.58-.03-.22.55-.33.27-.91-.3-.59-.11-2.33-.47-3.55-.58-1.99-2.19-3.99-2.96-6.71-.17-.55.19-.89-.06-1.47,0,.17-.78,0-.91-.28-.28-.47-.25-1.69-.72-2.66-.61-1.3-1.69-2.69-2.27-4.08-.78-1.88-1.05-4.02-1.75-5.88-1.89-5.29-5.41-11.28-8.21-17.53-1.05-2.38-1.63-5.29-2.71-7.65-2.86-6.19-6.88-11.76-10.04-18.05-1.91-3.8-3.55-7.54-5.57-11.37-.5-.97-1.13-1.91-1.61-2.91-.08-.17.5-1.03-.05-1.5-.25-.19-.56.36-.91-.25-2.02-3.53-3.63-7.32-5.24-10.82-2.05-4.38-4.08-7.93-5.3-12.28,0,0,.33-.53.25-.89-.47-1.75-1-2.11-1.69-4.41-.17-.56.19-.86-.06-1.5-1.05-2.46-2.94-4.52-3.88-6.99-.89-2.33-.83-5.02-1.83-7.37.44-.36.69-.06.91.27,1.64,1.28,2.75,3.02,4.08,4.58.05.08.61-.2.92.27.47.77.83,2.41,1.94,3.5"/>
  <path class="cls-1" d="M407.63,316.19c-.33-.14-1.19.22-1.5.05-.69-.39-.91-1.02-1.55-1.42-1.25-.75-3.3-1.52-5.19-2.47-1.72-.86-3.35-1.41-5.15-2.44-.45-.25-.75-.61-1.25-.83-.42-.23-1.44-.31-1.81-.53-.72-.47-.85-1.06-1.55-1.41-.22-.14-.92.72-1.16.64-.53-.17-1.16-2.03-2.19-2.58-.41-.22-1.28-.3-1.83-.52-1.06-.47-1.92-1.06-3.36-1.94-.33-.22-.5.39-.91-.25-.55-.94-2.13-.41-3.02-1.36-.89-.94-1.11-1-2.47-1.69-.39-.19-.5.39-.92-.25-.25-.42-2.14-1.94-2.77-2.28-.58-.3-1.74-.3-2.72-.77-.25-.14-.36-1.11-.64-1.17-.55-.11-1.19-.8-2.8-2.25.06.03-1.77-2-1.86-2.03-1-.17-2.94-2.75-4.65-4.27-.22-.17-.56.33-.92-.25-.39-.64-1.86-1.53-2.77-2.27-.2-.14-.42-1.11-.67-1.16-.58-.11-1.61-1.11-2.77-2.25-.14-.17-.58.28-.92-.28-.83-1.36-1.22-1.94-2.52-3.16.64.06,1.3.08,2.08-.39,1.03.64,1.94.86,3.05,1.36.41.2,1.44.31,1.8.53.22.14.39,1.11.64,1.16.14.03.47-.39.58-.33.31.14.36,1.09.67,1.17.27.08.88-.75,1.16-.64.27.08.36,1.11.64,1.16.5.09,2.61.64,3.05,1.36.3.47,1.58.78,2.13,1.08.72.41,1.78,1.02,3.02,1.36.5.14.22.61.92.28.58-.28.86.42,1.22.83.47.5,1.53.77,2.13,1.08.89.44,1.67.33,2.72.8.61.25.89,1.11,1.55,1.42.89.39,3.08.52,4.55,1.27.36.19,1.64.39,1.8.52.44.36.47,1.44.97,1.75.33.22.5-.36.91.25.44.75,1.33.22,1.8.53.92.61,1.86,1.61,2.77,2.27,1.14.78,1.75,1.5,2.8,2.25.39.3,1.44.3,1.8.52.25.14.39,1.11.64,1.17,1.14.19,2.41,2.22,4.02,3.1.75.42,1.36.67,2.14,1.09.3.16.77.19.92.27.86.53.99,1.41,1.86,2,.34.22,1.61.33,1.83.53.47.42,1.05,2.8,1.61,2.91,2,.36,3.49,4.21,5.96,6.6.14.14.55-.31.91.25.08.14.16.47.31.58.52.42,1.63,1.28,2.77,2.28.97.83,2.91.92,3.77,3.99-2.69-.28-4.63-2.55-6.74-3.88-1.08-.66-2.3-1.3-3.35-1.94-.44-.25-1-1.16-1.55-1.41"/>
  <path class="cls-1" d="M407.33,145.65c-2.36-2.41-4.3-4.69-6.88-6.85-.19-.17-.42-1.14-.64-1.16-.11,0-.5.33-.58.33-.8-.72-1.39-1.91-2.19-2.6-.28-.22-1.63-.34-1.83-.5-.44-.45-.5-1.36-.94-1.75-.22-.19-.56.31-.92-.28-1.3-2.02-5.13-3.13-6.54-6.27,1.08.14,2.16,0,3.3.44.86.36,1.5,1.33,2.47,1.69,1.5.58,3.44.89,5.44,1.55,1.81.58,3.66.94,5.44,1.55,1.8.61,3.44,1.58,5.16,2.47,1.75,2.44-.61,3.74.28,5.93-.97,1.69.97,4.19-1.55,5.44"/>
  <path class="cls-1" d="M434.5,153.41c-.69,1.69.8,1.61,1.61,2.91.08.14.69,1.03.64,1.17-.36.91.14.3.66,1.16,1.94,3.24,5.13,8.96,6.21,12.53.47,1.58,1.97,2.08,3.16,4.35.8,1.55,1.22,3.55,2.02,4.97.86,1.58,2.11,2.36,2.83,3.77.72,1.39.97,2.92,1.69,4.39,1,2.11,2.53,3.83,3.55,6.4-.06-.11-.8.8-.25.91,1.86.31,1.3,2.08,1.94,3.5,1.8,4.05,3.52,7.62,4.99,11.7.23.61-.08,1.19.39,2.05,0-.14,1.11-.19.89.28-.44,1.11,1.41,4.38,2.08,6.46.08.22.72,1,.67,1.17-.53,1.33,1.47,5.26,2.13,7.96.25,1.14.2,2.16.45,3.55.08.45,1.3,2.58,1.03,3.25-.03.08-.58.25-.58.33.33,2.3.77,4.91.91,7.1.08,1.36-.36,1.14.14,2.99.17.69-.28.5-.28.89.17,3.14.78,6.91.47,10.43-.05.55-.44,1.28-.52,1.8-.06.5.14.97.08,1.5-.08.55-.47,1.3-.53,1.8-.06.47-1.19,3.24-.72,4.21.39.81-1.03,5.41-1.47,6.93-.8,2.72-2.05,6.01-3.18,9.37-.89,2.71-1.44,5.24-2.3,8.15-.16.5.39.5-.28.89-.8.53-.55,2.55-1.02,3.64-.11.28-1.11.36-1.17.66-.19,1.14-.53,1.52-1.36,3.03-.69,1.27-1.69,2.52-1.61,3.96-2.61,1.47-3.49,3.27-4.85,4.96-1.08,1.36-1.3,3.94-4.27,4.66-1.22-.94.44-1.25.53-1.8.11-.75-.58-1.39-.39-2.08.33-1.47,1.11-3.13,1.86-4.85.55-1.25,1.25-3.03,2.8-4.58.44-1.83.25-3.86.64-5.72,2.05-.03.41-1.69.78-2.72.3-.91,1.27-1.55,1.66-2.44.75-1.69,1.83-3.33,2.47-5.19.08-.28-.75-.89-.64-1.17.28-.77,2.38-2.35,1.61-3.94-.53-1.05.8-1.66,1.36-3.05.13-.36.64-1.88.78-2.72.03-.3-.75-.89-.67-1.16.5-1.22.36-1.61.47-3.3.02-.75.14-2.3.11-3.88,0-.39.58-.22.28-.91-.5-1-.06-.8-.08-1.47-.06-1.75-.69-3.77-.83-5.63-.08-1-.11-1.97-.14-2.99,0-.39.58-.22.28-.89-.08-.17-.31-.42-.33-.59-.28-2.22-2.64-8.18-3.19-11.2-.11-.61-.61-1.72-.69-2.63-.06-.47.53-1.44.53-1.83-.09-1.03-.69-1.58-.72-2.64-.03-.39.56-1.56.5-1.83-.16-1-1.55-2.91-2-4.96-.17-.81-.44-4.41-1.16-6.21-1.03-2.55-2.66-4.41-3.88-6.99-2.47-5.21-3.88-11.01-6.1-16.44-1.19-2.94-2.55-5.68-3.94-8.46-.27-.55.22-1.3-.39-2.08-.03-.06-.64.19-.91-.25-3.11-4.96-5.3-11.48-9.07-16.31-.83-1.1-2.41-2.49-2.83-3.74-.97-2.83.58-4.63,1.16-7.52.47-2.38-.02-5.02,1.47-6.93-.2-.72.94-1.03.52-1.8.45-.39.67-.08.92.25.69.16.94.78,1.55,1.44.08.08,1.77.86,1.55,1.41"/>
  <path class="cls-1" d="M449.03,243.49c-.57-3.19-.3-6.73-.74-8.8-.22-1.15-1.64-1.77-2.01-3.04-.73-2.47-.39-5.56-1.94-7.04-.99-.89.02-.83-.26-1.57-.92-2.47-2.01-4.34-2.54-6.2-.29-.98-.15-1.99-.53-3.15-.29-.81-.19-2.25-.54-3.15-.52-1.22-1.41-1.69-2-3.04-.31-.71-.18-2.35-.53-3.15-.58-1.22-2.14-1.8-2.01-3.04-2.01,2.01.21,4.91.47,7.15.27,2.37.32,4.83.47,7.15.08,1.26-.95,1.97-.94,3.26,0,1.13,1.33,2.76,1.4,3.88.05,1.23-.99,2.21-.94,3.27.06,1.22,1.27,2.7,1.41,3.88.29,2.44.06,4.78.44,7.18.4,2.36,1.5,4.64,1.94,7.04.36,1.76,1.7,9.31,1.64,9.49-.93,1.47,0,4.22,1.67,5.46-1.53,3.04,1.19,5.73-.74,8.83,2.38,3.24,2.59,7.42,3.34,10.92.74,3.6,1.32,7.41,1.87,11.03-.35.49.02,1.53.87.74.33-2.82.92-5.59,1.01-7.27.07-1.23-.55-2.15-.53-3.15.07-3.42.47-6.92.47-10.42-.03-1.99-.66-4.84-.2-5.56.6-1.01-.34-.91-.27-1.58.08-1.17.91-2,.94-3.26.06-2.1-1.25-3.93-.2-5.57.63-1.04-.31-.94-.26-1.57.37-3.85-.18-5.61-.74-8.72"/>
</svg>